<svg viewBox="0 0 1200 600" xmlns="http://www.w3.org/2000/svg">
  <!-- Define gradients and shadows -->
  <defs>
    <!-- Red gradient -->
    <linearGradient id="redGradient" x1="0%" y1="100%" x2="0%" y2="0%">
      <stop offset="0%" style="stop-color:#C8102E;stop-opacity:1" />
      <stop offset="100%" style="stop-color:#EE2737;stop-opacity:1" />
    </linearGradient>
    
    <!-- Green gradient -->
    <linearGradient id="greenGradient" x1="0%" y1="100%" x2="0%" y2="0%">
      <stop offset="0%" style="stop-color:#00732F;stop-opacity:1" />
      <stop offset="100%" style="stop-color:#009739;stop-opacity:1" />
    </linearGradient>
    
    <!-- Shadow filter -->
    <filter id="shadow" x="-50%" y="-50%" width="200%" height="200%">
      <feGaussianBlur in="SourceAlpha" stdDeviation="3"/>
      <feOffset dx="0" dy="2" result="offsetblur"/>
      <feFlood flood-color="#000000" flood-opacity="0.1"/>
      <feComposite in2="offsetblur" operator="in"/>
      <feMerge>
        <feMergeNode/>
        <feMergeNode in="SourceGraphic"/>
      </feMerge>
    </filter>
  </defs>
  
  <!-- Chart Container with Circle Background -->
  <g transform="translate(150, 220) scale(0.75)">
    <!-- Gray circle background -->
    <circle cx="140" cy="100" r="150" fill="#CCCCCC" opacity="0.15"/>
    
    <!-- Chart base -->
    <g transform="translate(0, 200)">
      <!-- Shadow ellipse -->
      <ellipse cx="140" cy="10" rx="160" ry="20" fill="#000000" opacity="0.05"/>
      
      <!-- Bar 1 - Red -->
      <rect x="0" y="-80" width="50" height="80" fill="url(#redGradient)" rx="4" filter="url(#shadow)"/>
      
      <!-- Bar 2 - Green -->
      <rect x="60" y="-120" width="50" height="120" fill="url(#greenGradient)" rx="4" filter="url(#shadow)"/>
      
      <!-- Bar 3 - Red -->
      <rect x="120" y="-160" width="50" height="160" fill="url(#redGradient)" rx="4" filter="url(#shadow)"/>
      
      <!-- Bar 4 - Green -->
      <rect x="180" y="-140" width="50" height="140" fill="url(#greenGradient)" rx="4" filter="url(#shadow)"/>
      
      <!-- Bar 5 - Red -->
      <rect x="240" y="-180" width="50" height="180" fill="url(#redGradient)" rx="4" filter="url(#shadow)"/>
      
      <!-- Bar 6 - Green (tallest) -->
      <rect x="300" y="-220" width="50" height="220" fill="url(#greenGradient)" rx="4" filter="url(#shadow)"/>
    </g>
    
    <!-- Growth line -->
    <g transform="translate(0, 200)">
      <!-- Line path -->
      <path d="M 25 -60 L 85 -100 L 145 -120 L 205 -110 L 265 -150 L 325 -200" 
            stroke="#000000" 
            stroke-width="4" 
            fill="none"
            stroke-linecap="round"
            stroke-linejoin="round"/>
      
      <!-- Data points -->
      <circle cx="25" cy="-60" r="8" fill="#000000"/>
      <circle cx="85" cy="-100" r="8" fill="#000000"/>
      <circle cx="145" cy="-120" r="8" fill="#000000"/>
      <circle cx="205" cy="-110" r="8" fill="#000000"/>
      <circle cx="265" cy="-150" r="8" fill="#000000"/>
      <circle cx="325" cy="-200" r="8" fill="#000000"/>
      
      <!-- Inner white circles for data points -->
      <circle cx="25" cy="-60" r="4" fill="#FFFFFF"/>
      <circle cx="85" cy="-100" r="4" fill="#FFFFFF"/>
      <circle cx="145" cy="-120" r="4" fill="#FFFFFF"/>
      <circle cx="205" cy="-110" r="4" fill="#FFFFFF"/>
      <circle cx="265" cy="-150" r="4" fill="#FFFFFF"/>
      <circle cx="325" cy="-200" r="4" fill="#FFFFFF"/>
    </g>
  </g>
  
  <!-- Text Content -->
  <g>
    <!-- Main Title: Emirates -->
    <text x="450" y="240" 
          font-family="Arial, -apple-system, BlinkMacSystemFont, sans-serif" 
          font-size="65" 
          font-weight="700" 
          fill="#003366"
          letter-spacing="-0.5">Emirates</text>
    
    <!-- Subtitle: Analytics -->
    <text x="450" y="310" 
          font-family="Arial, -apple-system, BlinkMacSystemFont, sans-serif" 
          font-size="65" 
          font-weight="700" 
          fill="#003366"
          letter-spacing="-0.5">Analytics</text>
    
    <!-- Arabic Text -->
    <text x="550" y="390" 
          font-family="Arial, sans-serif" 
          font-size="42" 
          font-weight="600" 
          fill="#003366"
          text-anchor="middle"
          direction="rtl">الإمارات أناليتكس</text>
  </g>
</svg>